<svg width="112" height="112" viewBox="0 0 112 112" fill="none" xmlns="http://www.w3.org/2000/svg">
<path d="M95 56.1434C95 34.5251 77.539 17 56 17C34.4609 17 17 34.5251 17 56.1434C17 74.501 29.5915 89.9042 46.5785 94.1342V68.1049H38.5364V56.1434H46.5785V50.9893C46.5785 37.666 52.5857 31.4907 65.6181 31.4907C68.0886 31.4907 72.352 31.9769 74.096 32.4632V43.3065C73.1756 43.2093 71.577 43.1606 69.5904 43.1606C63.1955 43.1606 60.7247 45.5919 60.7247 51.9131V56.1434H73.4635L71.2752 68.1049H60.7247V95C80.0353 92.6592 95 76.1564 95 56.1434Z" fill="black"/>
</svg>
