<svg width="112" height="112" viewBox="0 0 112 112" fill="none" xmlns="http://www.w3.org/2000/svg">
<path d="M40.88 20H71.12C82.64 20 92 29.36 92 40.88V71.12C92 76.6577 89.8001 81.9686 85.8844 85.8844C81.9686 89.8001 76.6577 92 71.12 92H40.88C29.36 92 20 82.64 20 71.12V40.88C20 35.3423 22.1999 30.0314 26.1156 26.1156C30.0314 22.1999 35.3423 20 40.88 20ZM40.16 27.2C36.7228 27.2 33.4264 28.5654 30.9959 30.9959C28.5654 33.4264 27.2 36.7228 27.2 40.16V71.84C27.2 79.004 32.996 84.8 40.16 84.8H71.84C75.2772 84.8 78.5736 83.4346 81.0041 81.0041C83.4346 78.5736 84.8 75.2772 84.8 71.84V40.16C84.8 32.996 79.004 27.2 71.84 27.2H40.16ZM74.9 32.6C76.0935 32.6 77.2381 33.0741 78.082 33.918C78.9259 34.7619 79.4 35.9065 79.4 37.1C79.4 38.2935 78.9259 39.4381 78.082 40.282C77.2381 41.1259 76.0935 41.6 74.9 41.6C73.7065 41.6 72.5619 41.1259 71.718 40.282C70.8741 39.4381 70.4 38.2935 70.4 37.1C70.4 35.9065 70.8741 34.7619 71.718 33.918C72.5619 33.0741 73.7065 32.6 74.9 32.6ZM56 38C60.7739 38 65.3523 39.8964 68.7279 43.2721C72.1036 46.6477 74 51.2261 74 56C74 60.7739 72.1036 65.3523 68.7279 68.7279C65.3523 72.1036 60.7739 74 56 74C51.2261 74 46.6477 72.1036 43.2721 68.7279C39.8964 65.3523 38 60.7739 38 56C38 51.2261 39.8964 46.6477 43.2721 43.2721C46.6477 39.8964 51.2261 38 56 38ZM56 45.2C53.1357 45.2 50.3886 46.3379 48.3632 48.3632C46.3379 50.3886 45.2 53.1357 45.2 56C45.2 58.8643 46.3379 61.6114 48.3632 63.6368C50.3886 65.6621 53.1357 66.8 56 66.8C58.8643 66.8 61.6114 65.6621 63.6368 63.6368C65.6621 61.6114 66.8 58.8643 66.8 56C66.8 53.1357 65.6621 50.3886 63.6368 48.3632C61.6114 46.3379 58.8643 45.2 56 45.2Z" fill="black"/>
</svg>
